<svg width="25" height="23" viewBox="0 0 25 23" fill="none" xmlns="http://www.w3.org/2000/svg">
<path fill-rule="evenodd" clip-rule="evenodd" d="M11.7071 0.750901C12.0976 1.14143 12.0976 1.77459 11.7071 2.16511L2.41421 11.458L11.7071 20.7509C12.0976 21.1414 12.0976 21.7746 11.7071 22.1651C11.3166 22.5556 10.6834 22.5556 10.2929 22.1651L0.292893 12.1651C-0.0976311 11.7746 -0.0976311 11.1414 0.292893 10.7509L10.2929 0.750901C10.6834 0.360377 11.3166 0.360377 11.7071 0.750901Z" fill="#A6C1CA"/>
<path fill-rule="evenodd" clip-rule="evenodd" d="M0 11.458C0 10.9057 0.447715 10.458 1 10.458H23.8571C24.4094 10.458 24.8571 10.9057 24.8571 11.458C24.8571 12.0103 24.4094 12.458 23.8571 12.458H1C0.447715 12.458 0 12.0103 0 11.458Z" fill="#A6C1CA"/>
</svg>
